<svg xmlns="http://www.w3.org/2000/svg" xmlns:xlink="http://www.w3.org/1999/xlink" width="1921" zoomAndPan="magnify" viewBox="0 0 1440.75 307.499996" height="410" preserveAspectRatio="xMidYMid meet" version="1.0"><defs><g/><clipPath id="433eee86dc"><path d="M 17 67 L 254.285156 67 L 254.285156 307 L 17 307 Z M 17 67 " clip-rule="nonzero"/></clipPath><clipPath id="da14f62375"><path d="M 240 36 L 1373.722656 36 L 1373.722656 273 L 240 273 Z M 240 36 " clip-rule="nonzero"/></clipPath><clipPath id="c4915fbd5d"><rect x="0" width="1134" y="0" height="237"/></clipPath><clipPath id="b92ce5f273"><rect x="0" width="1374" y="0" height="307"/></clipPath></defs><g transform="matrix(1, 0, 0, 1, 30, 0)"><g clip-path="url(#b92ce5f273)"><path fill="#0fa685" d="M 232.785156 8.222656 C 235.902344 11.332031 234.808594 16.769531 234.808594 21.089844 C 234.773438 42.441406 234.773438 42.441406 229.699219 49.996094 C 228.871094 51.238281 228.152344 52.515625 227.4375 53.824219 C 225.769531 56.855469 223.96875 59.539062 221.519531 62.003906 L 220.539062 62.003906 C 220.402344 62.285156 220.265625 62.574219 220.128906 62.867188 C 218.347656 66.292969 215.90625 68.546875 212.847656 70.859375 C 211.71875 71.78125 211.71875 71.78125 210.554688 73.304688 C 208.894531 75.128906 207.078125 75.878906 204.855469 76.910156 C 203.542969 77.570312 202.503906 78.257812 201.375 79.171875 C 190.28125 87.777344 169.664062 86.007812 156.382812 86.117188 L 153.167969 86.144531 L 144.691406 86.21875 C 142.945312 86.234375 141.199219 86.246094 139.457031 86.265625 C 125.3125 86.394531 111.164062 86.515625 97.019531 86.429688 C 96.785156 86.429688 96.785156 86.429688 95.605469 86.421875 C 94.765625 86.417969 93.929688 86.414062 93.089844 86.402344 C 91.394531 86.398438 89.898438 86.480469 88.265625 86.9375 C 87.648438 88.171875 87.722656 89.007812 87.738281 90.394531 C 87.738281 90.652344 87.738281 90.652344 87.746094 91.960938 C 87.746094 92.242188 87.746094 92.242188 87.761719 93.664062 C 87.769531 94.847656 87.777344 96.035156 87.78125 97.21875 C 87.789062 99.089844 87.804688 100.957031 87.824219 102.832031 C 87.839844 104.636719 87.84375 106.4375 87.855469 108.238281 C 87.859375 108.515625 87.859375 108.515625 87.875 109.929688 C 87.882812 112.730469 87.757812 115.097656 86.796875 117.738281 C 85.183594 118.753906 83.632812 119.542969 81.839844 120.183594 C 81.359375 120.355469 80.882812 120.523438 80.394531 120.699219 C 79.089844 121.117188 77.816406 121.398438 76.480469 121.679688 C 73.308594 122.492188 70.71875 124.242188 68 125.996094 C 65.824219 127.394531 63.675781 128.507812 61.300781 129.515625 C 60.117188 130.0625 59.230469 130.742188 58.289062 131.644531 C 57.96875 131.9375 57.652344 132.230469 57.324219 132.539062 C 57.023438 132.816406 56.730469 133.09375 56.421875 133.382812 C 55.035156 134.601562 53.65625 135.71875 52.070312 136.683594 C 50.285156 137.96875 49.035156 139.464844 47.609375 141.132812 C 46.726562 142.070312 45.96875 142.675781 44.878906 143.347656 C 42.832031 144.675781 41.882812 146.628906 40.65625 148.6875 C 39.789062 149.972656 38.988281 150.769531 37.777344 151.71875 C 35.734375 153.351562 34.796875 155.1875 33.636719 157.496094 C 32.9375 158.753906 32.222656 159.644531 31.222656 160.667969 C 29.226562 162.804688 28.085938 165.300781 26.84375 167.90625 C 25.640625 170.414062 24.304688 172.832031 22.828125 175.195312 C 21.371094 177.542969 20.269531 179.570312 19.679688 182.273438 L 17.71875 182.761719 C 13.023438 178.074219 17.1875 149.398438 17.179688 142.53125 C 17.175781 136.378906 17.167969 130.226562 17.15625 124.074219 C 17.148438 118.707031 17.140625 113.335938 17.136719 107.96875 C 17.136719 105.132812 17.132812 102.296875 17.128906 99.457031 C 17.117188 96.777344 17.117188 94.097656 17.117188 91.421875 C 17.117188 90.441406 17.117188 89.46875 17.113281 88.496094 C 17.09375 83.261719 17.246094 78.078125 17.671875 72.855469 C 17.710938 72.375 17.75 71.898438 17.792969 71.402344 C 18.304688 65.6875 19.195312 60.171875 22.207031 55.203125 C 23.65625 52.769531 24.910156 50.242188 26.199219 47.730469 C 27.917969 44.429688 29.621094 41.554688 32.609375 39.242188 C 33.921875 38.058594 34.90625 36.628906 35.941406 35.199219 C 36.949219 33.984375 38.011719 33.128906 39.277344 32.179688 C 39.539062 31.976562 39.808594 31.777344 40.078125 31.566406 C 50.09375 24.027344 50.09375 24.027344 55.238281 22.761719 C 56.421875 22.398438 56.421875 22.398438 57.714844 21.71875 C 59.921875 20.664062 62.183594 20.054688 64.535156 19.40625 C 64.996094 19.277344 65.449219 19.148438 65.921875 19.011719 C 68.839844 18.195312 71.609375 17.476562 74.652344 17.375 C 75.152344 17.355469 75.644531 17.339844 76.160156 17.320312 C 76.425781 17.3125 76.425781 17.3125 77.777344 17.265625 L 79.460938 17.207031 C 81.246094 17.144531 83.023438 17.082031 84.808594 17.023438 C 86.570312 16.964844 88.335938 16.898438 90.101562 16.835938 C 91.195312 16.796875 92.292969 16.761719 93.390625 16.722656 C 96.078125 16.632812 98.753906 16.488281 101.433594 16.289062 C 105 16.019531 108.558594 15.917969 112.128906 15.835938 C 112.808594 15.816406 113.492188 15.800781 114.167969 15.78125 C 117.003906 15.707031 119.835938 15.632812 122.671875 15.570312 C 131.546875 15.363281 140.316406 14.875 149.144531 13.925781 C 152.152344 13.609375 155.148438 13.445312 158.167969 13.355469 C 162.9375 13.199219 167.628906 12.714844 172.367188 12.175781 C 176.265625 11.738281 180.128906 11.484375 184.046875 11.355469 C 187.8125 11.21875 191.53125 10.828125 195.28125 10.421875 C 201.050781 9.800781 206.78125 9.507812 212.582031 9.371094 C 217.585938 9.242188 222.542969 8.886719 227.519531 8.417969 C 229.285156 8.257812 231.019531 8.179688 232.785156 8.222656 " fill-opacity="1" fill-rule="nonzero"/><path fill="#036bd7" d="M 202.902344 129.472656 C 203.222656 140.699219 202.65625 151.28125 196.695312 161.132812 C 196.054688 162.210938 195.726562 163.132812 195.402344 164.335938 C 194.605469 166.824219 193.285156 168.546875 191.632812 170.539062 C 190.972656 171.375 190.308594 172.210938 189.644531 173.042969 C 189.308594 173.460938 188.96875 173.875 188.625 174.300781 C 187.929688 175.160156 187.265625 176.039062 186.613281 176.925781 C 183.398438 180.714844 178.789062 183.199219 174.433594 185.421875 C 173.320312 186.011719 172.277344 186.707031 171.304688 187.5 C 167.394531 190.417969 161.59375 191.039062 156.90625 191.867188 C 156.164062 192 155.425781 192.144531 154.6875 192.296875 C 150.273438 193.132812 145.859375 193.292969 141.375 193.464844 C 138.96875 193.558594 136.570312 193.660156 134.167969 193.765625 C 133.683594 193.785156 133.199219 193.804688 132.699219 193.828125 C 126.324219 194.089844 119.957031 194.445312 113.59375 194.800781 C 111.339844 194.925781 109.085938 195.050781 106.832031 195.167969 L 102.273438 195.417969 C 101.5625 195.457031 100.851562 195.488281 100.140625 195.527344 C 96.109375 195.734375 92.214844 196.089844 88.265625 196.941406 L 87.777344 197.917969 L 86.796875 197.429688 C 74.308594 198.03125 74.308594 198.03125 69.628906 200.578125 C 67.710938 201.589844 65.730469 202.457031 63.742188 203.328125 C 63.375 203.488281 63.011719 203.648438 62.632812 203.816406 L 61.546875 204.296875 C 61.195312 204.453125 60.835938 204.609375 60.46875 204.769531 C 59.699219 205.105469 58.925781 205.4375 58.152344 205.777344 C 57.757812 205.941406 57.367188 206.113281 56.964844 206.289062 C 56.613281 206.441406 56.253906 206.597656 55.894531 206.753906 C 54.601562 207.378906 53.585938 208.230469 52.503906 209.164062 C 51.527344 209.824219 50.550781 210.476562 49.5625 211.121094 L 48.125 212.15625 C 46.453125 213.179688 45.085938 213.597656 43.195312 214.054688 C 43.074219 214.328125 42.949219 214.597656 42.828125 214.878906 C 41.617188 217.113281 40.285156 218.488281 38.144531 219.828125 C 35.480469 221.527344 33.660156 223.683594 31.746094 226.164062 C 30.476562 227.777344 29.511719 228.644531 27.519531 229.210938 C 27.449219 229.347656 27.449219 229.347656 27.117188 230.050781 C 25.535156 233.105469 23.574219 235.589844 21.148438 238.011719 C 20.261719 239.628906 20.261719 239.628906 19.679688 240.945312 L 17.230469 240.945312 L 17.320312 239.734375 C 17.363281 239.15625 17.402344 238.578125 17.445312 237.980469 C 17.457031 237.820312 17.457031 237.820312 17.515625 237.003906 C 17.652344 234.992188 17.746094 232.988281 17.792969 230.980469 C 17.921875 226.167969 18.21875 221.503906 19.132812 216.773438 C 19.210938 216.359375 19.289062 215.945312 19.367188 215.519531 C 20.238281 211.304688 21.898438 207.453125 23.65625 203.539062 C 24.941406 200.605469 25.917969 197.699219 26.753906 194.621094 C 27.503906 191.910156 28.242188 189.898438 30.125 187.761719 C 32.472656 184.664062 33.964844 180.789062 35.597656 177.277344 C 36.351562 175.890625 37.164062 174.910156 38.265625 173.777344 C 39.5 172.441406 40.457031 171.296875 41.175781 169.621094 C 42.253906 167.230469 44.027344 165.523438 45.816406 163.632812 C 47.070312 162.277344 48.226562 160.882812 49.378906 159.445312 C 52.5 155.625 55.875 152.519531 59.777344 149.523438 C 61.390625 148.285156 62.929688 147.023438 64.414062 145.636719 C 65.980469 144.230469 67.507812 143.519531 69.453125 142.75 C 70.855469 142.074219 71.972656 141.210938 73.203125 140.257812 C 76.066406 138.105469 79.011719 136.96875 82.386719 135.828125 C 83.296875 135.503906 84.203125 135.175781 85.109375 134.851562 C 85.546875 134.695312 85.976562 134.535156 86.421875 134.378906 C 88.363281 133.652344 90.269531 132.851562 92.175781 132.039062 C 92.664062 131.832031 93.148438 131.632812 93.65625 131.425781 C 94.21875 131.1875 94.78125 130.953125 95.359375 130.707031 C 97.890625 129.769531 100.445312 129.449219 103.121094 129.148438 C 103.667969 129.089844 104.222656 129.027344 104.789062 128.964844 C 111.917969 128.238281 119.066406 128.257812 126.222656 128.246094 C 128.242188 128.238281 130.253906 128.230469 132.273438 128.214844 C 136.089844 128.195312 139.910156 128.179688 143.726562 128.171875 C 148.015625 128.15625 152.304688 128.136719 156.597656 128.113281 C 200.785156 127.886719 200.785156 127.886719 202.902344 129.472656 " fill-opacity="1" fill-rule="nonzero"/><g clip-path="url(#433eee86dc)"><path fill="#142446" d="M 292.367188 67.648438 L 295 67.648438 C 297.382812 67.648438 299.757812 67.65625 302.140625 67.671875 C 304.628906 67.679688 307.117188 67.6875 309.605469 67.6875 C 314.3125 67.691406 319.019531 67.710938 323.730469 67.730469 C 329.09375 67.75 334.453125 67.757812 339.816406 67.769531 C 350.84375 67.789062 361.871094 67.824219 372.894531 67.867188 C 377.613281 74.925781 373.875 84.8125 373.875 93.289062 C 357.542969 106.335938 332.085938 95.570312 311.167969 95.734375 C 308.933594 99.085938 310.148438 105.996094 310.140625 110.054688 C 310.132812 112.046875 310.128906 114.035156 310.113281 116.023438 C 310.105469 117.945312 310.101562 119.867188 310.101562 121.789062 L 310.085938 123.984375 C 310.082031 125.011719 310.082031 126.039062 310.082031 127.066406 C 310.074219 127.652344 310.074219 128.234375 310.070312 128.835938 C 310.191406 130.5 310.574219 131.832031 311.167969 133.382812 C 325.167969 142.699219 344.804688 134.683594 361.628906 134.847656 C 366.4375 141.253906 363.097656 150.804688 363.097656 158.804688 L 361.628906 160.761719 C 353.464844 160.84375 353.464844 160.84375 312.148438 161.25 C 310.679688 162.226562 310.679688 162.226562 310.1875 163.695312 C 310.140625 164.476562 310.121094 165.257812 310.113281 166.046875 L 310.101562 167.507812 C 310.09375 168.039062 310.09375 168.566406 310.089844 169.109375 L 310.074219 170.800781 C 310.0625 172.65625 310.046875 174.503906 310.035156 176.351562 L 310.007812 180.195312 C 309.980469 183.222656 309.957031 186.253906 309.9375 189.277344 C 309.914062 192.726562 309.882812 196.171875 309.859375 199.625 C 309.800781 206.714844 309.753906 213.808594 309.699219 220.894531 L 308.226562 222.363281 L 278.34375 222.363281 C 271.089844 212.707031 276.746094 178.601562 276.726562 166.246094 C 276.722656 164.113281 276.71875 161.976562 276.71875 159.847656 C 276.714844 159.421875 276.714844 158.996094 276.714844 158.554688 C 276.699219 151.691406 276.679688 144.820312 276.648438 137.953125 C 276.625 130.898438 276.605469 123.847656 276.601562 116.792969 C 276.59375 112.441406 276.585938 108.09375 276.5625 103.75 C 276.546875 100.761719 276.542969 97.773438 276.542969 94.785156 C 276.546875 93.066406 276.542969 91.34375 276.527344 89.628906 C 276.46875 82.5 276.484375 76.257812 279.8125 69.824219 C 283.6875 67.199219 287.875 67.609375 292.367188 67.648438 M 1059.277344 118.992188 C 1060.484375 119.988281 1061.292969 120.480469 1062.679688 121.097656 C 1064.882812 122.140625 1066.132812 123.640625 1067.578125 125.5625 C 1068.65625 126.96875 1069.539062 128.007812 1070.960938 129.078125 C 1072.617188 130.441406 1073.386719 132.027344 1074.160156 133.996094 C 1074.300781 134.332031 1074.441406 134.671875 1074.582031 135.019531 C 1074.878906 135.730469 1075.171875 136.449219 1075.457031 137.167969 C 1075.910156 138.285156 1076.375 139.386719 1076.851562 140.492188 C 1077.160156 141.222656 1077.464844 141.945312 1077.773438 142.675781 L 1078.203125 143.679688 C 1078.335938 144.003906 1078.472656 144.328125 1078.609375 144.660156 C 1078.726562 144.9375 1078.839844 145.214844 1078.964844 145.5 C 1080.027344 148.59375 1080.46875 151.375 1080.460938 154.621094 C 1080.460938 155.003906 1080.46875 155.378906 1080.46875 155.773438 C 1080.472656 156.5625 1080.472656 157.355469 1080.46875 158.148438 C 1080.46875 159.355469 1080.476562 160.5625 1080.492188 161.769531 L 1080.492188 164.097656 L 1080.507812 165.179688 C 1080.488281 167.496094 1080.105469 169.082031 1078.84375 171.03125 C 1060.546875 184.726562 1033.128906 172.816406 1010.257812 172.988281 L 1009.28125 173.964844 C 1009.398438 177.71875 1009.792969 180.960938 1011.230469 184.453125 C 1011.691406 185.605469 1012 186.726562 1012.308594 187.925781 C 1013.554688 191.734375 1017.253906 195.246094 1020.546875 197.433594 C 1021.984375 198.082031 1023.449219 198.554688 1024.957031 199.019531 C 1025.339844 199.144531 1025.722656 199.269531 1026.113281 199.398438 C 1035.230469 202.304688 1044.300781 200.242188 1052.878906 196.453125 C 1054.34375 195.636719 1055.722656 194.765625 1057.097656 193.820312 C 1059.71875 192.050781 1061.820312 190.925781 1065.019531 191.339844 C 1068.875 192.136719 1071.765625 195.171875 1073.894531 198.308594 C 1074.480469 199.242188 1075.054688 200.175781 1075.621094 201.117188 C 1076.296875 202.167969 1076.945312 202.957031 1077.867188 203.789062 C 1077.867188 206.996094 1077.453125 207.199219 1075.566406 209.316406 C 1075.140625 209.800781 1074.714844 210.28125 1074.273438 210.78125 C 1072.621094 212.445312 1071.089844 213.332031 1068.925781 214.207031 C 1067.484375 214.796875 1066.28125 215.546875 1065.007812 216.4375 C 1052.71875 224.8125 1034.039062 225.140625 1019.8125 222.566406 C 1013.957031 221.441406 1008.386719 220.226562 1003.617188 216.5 C 1002.101562 215.351562 1000.75 214.390625 998.992188 213.6875 C 995.925781 212.285156 993.800781 209.226562 991.644531 206.722656 C 991.328125 206.382812 991.015625 206.046875 990.699219 205.695312 C 989.027344 203.875 988.214844 202.160156 987.234375 199.875 C 986.769531 199.308594 986.289062 198.761719 985.792969 198.222656 C 982.03125 194.054688 980.9375 188.050781 980.117188 182.671875 C 979.921875 181.519531 979.675781 180.433594 979.367188 179.3125 C 977.121094 170.640625 977.910156 159.980469 980.375 151.472656 C 980.53125 150.527344 980.675781 149.582031 980.800781 148.628906 C 981.601562 143.699219 983.59375 139.433594 986.773438 135.585938 C 987.605469 134.507812 988.125 133.589844 988.703125 132.378906 C 989.679688 130.367188 990.835938 129.179688 992.535156 127.738281 C 992.867188 127.453125 993.195312 127.171875 993.539062 126.871094 L 994.578125 125.984375 C 995.5 125.132812 996.234375 124.261719 997.003906 123.269531 C 998.375 121.601562 999.769531 120.972656 1001.761719 120.195312 C 1002.980469 119.664062 1003.96875 119.019531 1005.050781 118.257812 C 1018.003906 109.460938 1046.878906 108.636719 1059.277344 118.992188 M 1014.484375 139.921875 C 1011.769531 143.421875 1010.179688 147.652344 1009.28125 151.964844 C 1009.589844 154.226562 1009.589844 154.226562 1010.75 155.386719 C 1051.902344 154.898438 1051.902344 154.898438 1053.371094 153.429688 C 1053.355469 150.253906 1052.621094 147.460938 1051.535156 144.507812 C 1051.476562 144.339844 1051.476562 144.339844 1051.175781 143.511719 C 1049.683594 139.617188 1047.414062 137.453125 1043.695312 135.707031 C 1043.34375 135.535156 1042.996094 135.371094 1042.632812 135.199219 C 1040.203125 134.0625 1037.9375 133.105469 1035.246094 132.894531 C 1034.738281 132.851562 1034.234375 132.804688 1033.710938 132.757812 C 1026.890625 132.445312 1019.210938 134.773438 1014.484375 139.921875 M 523.714844 118.890625 C 524.410156 119.460938 525.082031 120.066406 525.75 120.667969 C 526.734375 121.394531 527.722656 122.105469 528.722656 122.808594 C 531.625 125.253906 533.257812 128.753906 535.054688 132.03125 C 535.488281 132.792969 535.953125 133.542969 536.417969 134.285156 C 538.109375 137.160156 538.761719 139.785156 539.050781 143.050781 C 539.070312 143.269531 539.070312 143.269531 539.171875 144.386719 C 539.707031 151.070312 539.585938 157.78125 539.5625 164.484375 C 539.558594 166.457031 539.558594 168.429688 539.558594 170.402344 C 539.554688 174.121094 539.542969 177.84375 539.535156 181.558594 C 539.523438 185.800781 539.519531 190.039062 539.515625 194.285156 C 539.484375 220.390625 539.484375 220.390625 537.503906 222.363281 L 511.050781 222.363281 C 509.582031 220.40625 509.582031 220.40625 509.578125 219.300781 C 509.546875 210.382812 509.511719 201.464844 509.464844 192.546875 C 509.445312 188.238281 509.425781 183.925781 509.410156 179.613281 C 509.398438 175.851562 509.386719 172.09375 509.359375 168.332031 C 509.351562 166.34375 509.339844 164.351562 509.335938 162.367188 C 509.332031 160.492188 509.320312 158.613281 509.308594 156.742188 C 509.308594 156.050781 509.300781 155.367188 509.300781 154.683594 C 509.308594 149.960938 509.144531 145.179688 506.121094 141.296875 C 505.871094 140.957031 505.621094 140.625 505.367188 140.277344 C 501.695312 137.066406 498 136.40625 493.226562 136.527344 L 491.585938 136.558594 C 486.199219 136.726562 482.480469 137.261719 478.59375 141.203125 C 478.203125 141.632812 477.816406 142.058594 477.410156 142.5 C 475.863281 144.058594 474.371094 144.78125 472.347656 145.601562 C 471.964844 147.632812 471.796875 149.539062 471.800781 151.601562 C 471.800781 152.207031 471.800781 152.808594 471.796875 153.4375 C 471.800781 154.097656 471.800781 154.761719 471.800781 155.425781 C 471.804688 156.128906 471.804688 156.832031 471.800781 157.539062 C 471.800781 159.441406 471.804688 161.347656 471.808594 163.25 C 471.808594 165.242188 471.808594 167.238281 471.816406 169.226562 C 471.816406 173.003906 471.820312 176.773438 471.824219 180.542969 C 471.828125 184.839844 471.828125 189.132812 471.835938 193.425781 C 471.839844 202.257812 471.847656 211.089844 471.859375 219.917969 C 471.613281 220.324219 471.613281 220.324219 470.390625 222.363281 L 443.445312 222.363281 C 442.675781 220.828125 442.890625 219.191406 442.894531 217.503906 L 442.894531 216.269531 C 442.890625 214.902344 442.894531 213.53125 442.894531 212.164062 C 442.902344 211.1875 442.902344 210.207031 442.894531 209.230469 C 442.894531 206.570312 442.902344 203.90625 442.90625 201.246094 C 442.90625 198.46875 442.90625 195.6875 442.910156 192.910156 C 442.910156 187.644531 442.914062 182.378906 442.921875 177.113281 C 442.925781 171.121094 442.925781 165.125 442.929688 159.132812 C 442.945312 122.148438 442.945312 122.148438 448.34375 116.269531 C 453.367188 114.839844 460.050781 114.019531 464.972656 116.304688 C 467.027344 117.589844 468.453125 119.226562 469.898438 121.15625 C 469.976562 121.886719 469.976562 121.886719 470.390625 125.558594 C 472.59375 125.148438 473.898438 124.632812 475.535156 123.085938 C 478.109375 120.679688 481.136719 119.011719 484.191406 117.277344 C 484.78125 116.933594 485.375 116.582031 485.957031 116.226562 C 496.164062 110.042969 514.34375 112.042969 523.714844 118.890625 M 1173.546875 118.257812 C 1173.945312 118.601562 1174.347656 118.941406 1174.757812 119.292969 C 1175.847656 120.183594 1175.847656 120.183594 1177.46875 120.976562 C 1179.171875 121.847656 1180.121094 123.074219 1181.234375 124.585938 C 1181.46875 124.898438 1181.710938 125.214844 1181.957031 125.539062 C 1182.453125 126.207031 1182.953125 126.882812 1183.449219 127.558594 C 1184.175781 128.496094 1184.175781 128.496094 1185.457031 129.839844 C 1192.570312 138.25 1190.816406 154.726562 1190.738281 165.070312 C 1190.730469 167.027344 1190.730469 168.980469 1190.722656 170.933594 C 1190.71875 174.613281 1190.703125 178.292969 1190.683594 181.972656 C 1190.660156 186.167969 1190.652344 190.367188 1190.640625 194.566406 C 1190.578125 220.351562 1190.578125 220.351562 1189.5625 221.878906 C 1188.078125 222.308594 1186.761719 222.425781 1185.222656 222.421875 L 1183.796875 222.421875 C 1183.542969 222.421875 1183.542969 222.421875 1182.269531 222.414062 C 1181.75 222.410156 1181.230469 222.410156 1180.695312 222.410156 C 1179.035156 222.410156 1177.378906 222.402344 1175.722656 222.394531 C 1174.597656 222.390625 1173.476562 222.390625 1172.347656 222.390625 C 1164.097656 222.371094 1164.097656 222.371094 1162.128906 220.898438 C 1162.128906 220.558594 1162.125 220.210938 1162.125 219.859375 C 1162.109375 211.476562 1162.078125 203.097656 1162.035156 194.722656 C 1162.015625 190.671875 1162 186.617188 1161.996094 182.5625 C 1161.988281 179.03125 1161.976562 175.496094 1161.953125 171.960938 C 1161.941406 170.09375 1161.933594 168.21875 1161.9375 166.351562 C 1161.933594 146.757812 1161.933594 146.757812 1156.25 139.25 C 1152.398438 135.886719 1145.898438 136.121094 1141.082031 136.410156 C 1136.304688 136.839844 1133.46875 138.683594 1129.796875 141.695312 C 1129.308594 142.066406 1128.824219 142.4375 1128.332031 142.820312 C 1125.003906 145.390625 1125.003906 145.390625 1124.40625 146.585938 C 1124.351562 147.5625 1124.332031 148.539062 1124.328125 149.523438 C 1124.324219 149.835938 1124.324219 149.835938 1124.3125 151.421875 C 1124.308594 152.121094 1124.308594 152.820312 1124.304688 153.519531 L 1124.289062 155.714844 C 1124.277344 157.707031 1124.265625 159.699219 1124.253906 161.6875 C 1124.246094 163.769531 1124.230469 165.847656 1124.21875 167.929688 C 1124.195312 171.871094 1124.171875 175.8125 1124.152344 179.753906 C 1124.128906 184.234375 1124.101562 188.722656 1124.074219 193.210938 C 1124.019531 202.4375 1123.964844 211.667969 1123.917969 220.898438 L 1122.445312 222.367188 L 1096.972656 222.367188 C 1094.957031 220.355469 1094.953125 219.015625 1094.953125 216.195312 C 1094.957031 215.835938 1094.957031 215.46875 1094.964844 215.089844 L 1094.964844 213.910156 C 1094.964844 212.597656 1094.972656 211.289062 1094.976562 209.976562 C 1094.976562 209.039062 1094.984375 208.101562 1094.984375 207.160156 L 1095.011719 199.503906 C 1095.015625 197.910156 1095.027344 196.316406 1095.03125 194.722656 C 1095.050781 189.738281 1095.070312 184.75 1095.097656 179.761719 C 1095.121094 174.003906 1095.144531 168.25 1095.160156 162.488281 C 1095.167969 158.039062 1095.1875 153.589844 1095.214844 149.136719 C 1095.222656 146.484375 1095.234375 143.824219 1095.238281 141.164062 C 1095.242188 138.664062 1095.257812 136.167969 1095.273438 133.664062 C 1095.277344 132.75 1095.28125 131.828125 1095.28125 130.910156 C 1095.28125 129.660156 1095.292969 128.40625 1095.300781 127.152344 C 1095.300781 126.789062 1095.296875 126.425781 1095.296875 126.054688 C 1095.339844 122.976562 1096.085938 120.78125 1098.046875 118.378906 C 1101.347656 115.667969 1104.21875 114.976562 1108.449219 115.050781 C 1108.890625 115.039062 1109.328125 115.035156 1109.773438 115.027344 C 1112.921875 115.046875 1115.269531 115.765625 1118.039062 117.25 C 1121.957031 123.140625 1121.957031 123.140625 1121.957031 126.539062 L 1124.40625 126.539062 C 1124.675781 126.207031 1124.949219 125.878906 1125.234375 125.539062 C 1127.996094 122.3125 1130.148438 120.554688 1134.203125 119.207031 L 1134.695312 117.738281 C 1145.496094 112.035156 1163.453125 110.058594 1173.546875 118.257812 M 754.175781 114.75 L 755.8125 114.75 C 756.394531 114.753906 756.976562 114.753906 757.582031 114.757812 L 759.386719 114.757812 L 765.125 114.773438 C 766.417969 114.777344 767.710938 114.777344 769.003906 114.777344 C 772.183594 114.789062 775.359375 114.792969 778.535156 114.800781 C 779.8125 117.703125 779.652344 120.558594 779.636719 123.660156 L 779.636719 125.464844 C 779.640625 127.09375 779.636719 128.722656 779.632812 130.351562 C 779.625 132.0625 779.625 133.765625 779.625 135.480469 C 779.625 138.359375 779.621094 141.234375 779.617188 144.113281 C 779.605469 147.421875 779.605469 150.734375 779.605469 154.042969 C 779.605469 157.582031 779.601562 161.121094 779.597656 164.660156 L 779.597656 167.699219 C 779.597656 169.59375 779.589844 171.496094 779.585938 173.398438 L 779.585938 175.070312 C 779.570312 178.445312 779.402344 181.773438 779.101562 185.132812 C 778.867188 189.796875 780.386719 194.039062 782.941406 197.917969 C 784.320312 199.15625 785.695312 200.128906 787.351562 200.945312 C 787.507812 201.023438 787.507812 201.023438 788.300781 201.421875 C 792.972656 203.300781 798.421875 202.488281 803.027344 200.851562 C 804.070312 200.289062 805.027344 199.667969 806.003906 198.988281 C 807.058594 198.339844 808.054688 198.019531 809.246094 197.671875 C 811.324219 197.042969 812.359375 196.136719 813.804688 194.496094 C 814.765625 193.652344 815.757812 192.855469 816.746094 192.050781 C 817.285156 190.445312 817.304688 189.265625 817.3125 187.578125 C 817.3125 186.945312 817.320312 186.316406 817.324219 185.664062 C 817.328125 184.964844 817.328125 184.265625 817.328125 183.566406 L 817.34375 181.363281 C 817.351562 179.773438 817.359375 178.191406 817.363281 176.605469 C 817.371094 174.101562 817.386719 171.597656 817.402344 169.097656 C 817.4375 163.328125 817.460938 157.5625 817.492188 151.796875 C 817.515625 146.507812 817.539062 141.222656 817.570312 135.9375 C 817.582031 133.449219 817.59375 130.957031 817.601562 128.46875 C 817.613281 126.917969 817.617188 125.371094 817.628906 123.824219 C 817.632812 123.105469 817.636719 122.386719 817.636719 121.667969 L 817.652344 118.726562 C 817.65625 118.179688 817.65625 117.632812 817.660156 117.066406 C 817.726562 115.78125 817.726562 115.78125 818.214844 114.800781 C 838.226562 114.800781 838.226562 114.800781 842.4375 118.898438 C 844.289062 122.003906 844.890625 124.710938 844.847656 128.257812 C 844.851562 128.660156 844.851562 129.058594 844.851562 129.46875 C 844.855469 130.804688 844.847656 132.132812 844.835938 133.46875 C 844.835938 134.425781 844.835938 135.386719 844.839844 136.34375 C 844.839844 138.945312 844.832031 141.542969 844.820312 144.136719 C 844.8125 146.851562 844.8125 149.570312 844.808594 152.289062 C 844.800781 157.425781 844.792969 162.570312 844.777344 167.707031 C 844.761719 173.558594 844.753906 179.417969 844.75 185.269531 C 844.699219 221.359375 844.699219 221.359375 843.691406 222.363281 C 841.628906 222.410156 839.566406 222.449219 837.496094 222.46875 C 836.800781 222.480469 836.101562 222.496094 835.402344 222.515625 C 830.96875 222.617188 827.210938 222.332031 823.113281 220.40625 C 821.335938 218.492188 820.640625 216.644531 820.050781 214.144531 C 819.96875 213.808594 819.886719 213.46875 819.796875 213.117188 C 819.59375 212.292969 819.394531 211.460938 819.195312 210.628906 C 817.726562 210.628906 817.726562 210.628906 813.316406 214.050781 L 812.335938 214.050781 L 811.847656 215.519531 C 807.574219 218.671875 803.925781 221.339844 798.621094 222.363281 C 797.859375 222.609375 797.105469 222.863281 796.355469 223.128906 C 785.507812 226.800781 773.996094 224.757812 763.835938 219.917969 C 761.746094 218.699219 760.359375 217.480469 758.90625 215.550781 C 757.871094 214.191406 756.917969 213.019531 755.664062 211.851562 C 750.449219 206.222656 750.394531 198.160156 750.441406 190.945312 L 750.441406 188.457031 C 750.441406 186.222656 750.453125 183.992188 750.460938 181.757812 C 750.472656 179.421875 750.472656 177.078125 750.472656 174.742188 C 750.476562 170.320312 750.492188 165.898438 750.507812 161.472656 C 750.519531 156.4375 750.53125 151.398438 750.535156 146.363281 C 750.550781 136.007812 750.578125 125.648438 750.609375 115.292969 C 751.875 114.664062 752.765625 114.742188 754.175781 114.75 M 87.777344 197.429688 C 87.785156 203.757812 87.796875 210.078125 87.800781 216.40625 C 87.804688 219.34375 87.804688 222.28125 87.816406 225.21875 C 87.820312 228.0625 87.820312 230.90625 87.820312 233.753906 C 87.824219 234.828125 87.824219 235.902344 87.828125 236.980469 C 87.839844 242.304688 87.808594 247.617188 87.59375 252.9375 L 87.550781 254.183594 C 87.265625 260.085938 84.789062 265.253906 82.230469 270.488281 C 81.480469 272.078125 80.855469 273.671875 80.242188 275.320312 C 79.160156 277.988281 77.621094 279.777344 75.621094 281.832031 C 74.605469 282.921875 73.878906 283.984375 73.109375 285.25 C 71.710938 287.464844 69.929688 288.835938 67.851562 290.398438 C 66.851562 291.1875 66.113281 291.921875 65.332031 292.921875 C 63.457031 295.21875 61.078125 296.042969 58.382812 297.167969 C 57.726562 297.488281 57.070312 297.808594 56.421875 298.148438 L 56.421875 299.125 C 50.621094 301.925781 45.214844 303.652344 38.875 304.796875 C 38.085938 304.941406 37.296875 305.09375 36.507812 305.25 C 32.628906 305.980469 28.886719 306.085938 24.945312 306.027344 C 24.34375 306.027344 23.734375 306.023438 23.113281 306.019531 C 18.71875 305.984375 18.71875 305.984375 17.230469 304.992188 L 17.230469 240.945312 C 17.632812 240.867188 17.632812 240.867188 19.679688 240.453125 C 19.738281 240.324219 19.738281 240.324219 20.023438 239.667969 C 20.183594 239.320312 20.339844 238.976562 20.507812 238.621094 C 20.660156 238.277344 20.8125 237.941406 20.972656 237.589844 C 21.640625 236.542969 21.640625 236.542969 22.835938 235.601562 C 24.207031 234.488281 24.847656 233.488281 25.710938 231.957031 C 27.074219 229.738281 28.328125 228.445312 30.476562 227.019531 C 31.585938 226.160156 32.292969 225.238281 33.121094 224.105469 C 34.613281 222.085938 36.242188 220.691406 38.261719 219.210938 C 39.976562 217.925781 41.386719 216.394531 42.796875 214.785156 C 44.390625 213.375 46.003906 212.605469 47.917969 211.703125 C 49.285156 211.011719 50.367188 210.15625 51.523438 209.164062 C 54.914062 206.8125 58.265625 205.054688 62.074219 203.507812 C 64.339844 202.574219 66.578125 201.589844 68.816406 200.609375 C 69.449219 200.335938 70.074219 200.0625 70.703125 199.789062 C 71.570312 199.402344 72.425781 198.996094 73.28125 198.585938 C 75.367188 197.796875 77.273438 197.539062 79.476562 197.335938 C 79.859375 197.296875 80.242188 197.257812 80.632812 197.214844 C 86.222656 196.652344 86.222656 196.652344 87.777344 197.429688 M 705.539062 82.535156 C 711.253906 91.085938 706.839844 103.0625 707.007812 113.339844 C 714.359375 118.226562 724.636719 114.632812 733.464844 114.804688 C 735.683594 117.757812 735.160156 121.417969 734.785156 125.046875 C 734.078125 129.101562 732.167969 131.40625 729.152344 134.105469 C 726.664062 135.824219 724.035156 135.984375 721.097656 136.027344 L 719.957031 136.058594 C 718.761719 136.085938 717.570312 136.113281 716.375 136.132812 L 713.941406 136.191406 C 711.957031 136.238281 709.972656 136.277344 707.988281 136.316406 C 704.109375 140.1875 706.476562 153.371094 706.472656 158.757812 C 706.464844 162.003906 706.457031 165.25 706.445312 168.496094 C 706.4375 171.628906 706.429688 174.769531 706.425781 177.902344 C 706.425781 179.097656 706.421875 180.289062 706.417969 181.488281 C 706.40625 183.164062 706.40625 184.839844 706.40625 186.519531 C 706.40625 186.761719 706.40625 186.761719 706.398438 188 C 706.40625 191.109375 706.804688 193.910156 707.5 196.941406 C 711.628906 199.691406 712.804688 200.257812 717.296875 199.875 C 718.582031 199.460938 719.773438 198.945312 721 198.390625 C 722.859375 197.660156 724.625 197.558594 726.605469 197.429688 C 729.054688 198.898438 729.054688 198.898438 729.628906 199.972656 L 730.402344 201.402344 C 730.53125 201.636719 730.53125 201.636719 731.160156 202.8125 C 732.019531 204.320312 732.988281 205.765625 733.953125 207.207031 C 733.953125 215.519531 733.953125 215.519531 731.996094 217.964844 C 729.457031 220.042969 726.660156 220.976562 723.515625 221.726562 C 723.132812 221.824219 722.75 221.921875 722.359375 222.019531 C 721.164062 222.316406 719.96875 222.589844 718.765625 222.855469 C 718.339844 222.945312 717.917969 223.039062 717.480469 223.136719 C 714.101562 223.816406 710.84375 223.980469 707.40625 223.953125 C 706.902344 223.960938 706.402344 223.964844 705.882812 223.964844 C 702.96875 223.960938 700.492188 223.691406 697.703125 222.855469 C 697.105469 222.691406 696.5 222.527344 695.882812 222.359375 C 689.574219 220.445312 685.230469 217.28125 681.882812 211.496094 C 681.292969 210.363281 680.730469 209.21875 680.1875 208.066406 C 679.996094 207.6875 679.808594 207.3125 679.613281 206.925781 C 677.234375 201.933594 676.980469 196.699219 676.96875 191.246094 L 676.953125 189.464844 C 676.945312 187.871094 676.933594 186.285156 676.929688 184.695312 C 676.921875 183.023438 676.90625 181.355469 676.894531 179.683594 C 676.871094 176.53125 676.851562 173.375 676.835938 170.222656 C 676.816406 166.628906 676.792969 163.035156 676.769531 159.441406 C 676.71875 152.058594 676.675781 144.675781 676.636719 137.292969 C 675.140625 136.300781 674.675781 136.175781 672.964844 136.058594 C 672.75 136.042969 672.75 136.042969 671.671875 135.953125 C 670.78125 135.890625 669.890625 135.828125 668.992188 135.769531 C 666.609375 135.574219 664.882812 135.378906 662.917969 133.871094 C 661.144531 129.183594 660.3125 122.601562 661.9375 117.738281 C 664.039062 116.742188 666.082031 116.53125 668.367188 116.328125 C 671.492188 116.023438 674.210938 115.433594 677.125 114.21875 C 678.105469 113.828125 678.105469 113.828125 679.085938 113.828125 C 680.511719 108.503906 681.648438 103.121094 682.359375 97.652344 C 682.960938 93.074219 683.578125 89.046875 685.945312 84.980469 C 689.863281 82.535156 689.863281 82.535156 705.539062 82.535156 " fill-opacity="1" fill-rule="nonzero"/></g><g clip-path="url(#da14f62375)"><g transform="matrix(1, 0, 0, 1, 240, 36)"><g clip-path="url(#c4915fbd5d)"><g fill="#0fa685" fill-opacity="1"><g transform="translate(1.242323, 187.467763)"><g><path d="M 47.5625 -110.65625 L 47.5625 -74.75 L 110.46875 -74.75 L 110.46875 -49.5 L 47.5625 -49.5 L 47.5625 0 L 16.109375 0 L 16.109375 -135.90625 L 118.8125 -135.90625 L 118.8125 -110.65625 Z M 47.5625 -110.65625 "/></g></g></g><g fill="#0fa685" fill-opacity="1"><g transform="translate(123.358892, 187.467763)"><g><path d="M 13.984375 -104.453125 L 44.265625 -104.453125 L 44.265625 0 L 13.984375 0 Z M 29.109375 -119.015625 C 23.546875 -119.015625 19.015625 -120.628906 15.515625 -123.859375 C 12.023438 -127.097656 10.28125 -131.113281 10.28125 -135.90625 C 10.28125 -140.6875 12.023438 -144.691406 15.515625 -147.921875 C 19.015625 -151.160156 23.546875 -152.78125 29.109375 -152.78125 C 34.679688 -152.78125 39.210938 -151.226562 42.703125 -148.125 C 46.203125 -145.019531 47.953125 -141.140625 47.953125 -136.484375 C 47.953125 -131.429688 46.203125 -127.253906 42.703125 -123.953125 C 39.210938 -120.660156 34.679688 -119.015625 29.109375 -119.015625 Z M 29.109375 -119.015625 "/></g></g></g><g fill="#0fa685" fill-opacity="1"><g transform="translate(181.79621, 187.467763)"><g><path d="M 77.46875 -106 C 90.40625 -106 100.851562 -102.113281 108.8125 -94.34375 C 116.769531 -86.582031 120.75 -75.066406 120.75 -59.796875 L 120.75 0 L 90.46875 0 L 90.46875 -55.140625 C 90.46875 -63.421875 88.65625 -69.597656 85.03125 -73.671875 C 81.40625 -77.753906 76.164062 -79.796875 69.3125 -79.796875 C 61.675781 -79.796875 55.59375 -77.429688 51.0625 -72.703125 C 46.53125 -67.984375 44.265625 -60.960938 44.265625 -51.640625 L 44.265625 0 L 13.984375 0 L 13.984375 -104.453125 L 42.90625 -104.453125 L 42.90625 -92.21875 C 46.914062 -96.613281 51.894531 -100.007812 57.84375 -102.40625 C 63.800781 -104.800781 70.34375 -106 77.46875 -106 Z M 77.46875 -106 "/></g></g></g><g fill="#0fa685" fill-opacity="1"><g transform="translate(315.949694, 187.467763)"><g><path d="M 60.765625 2.328125 C 50.023438 2.328125 39.640625 0.871094 29.609375 -2.03125 C 19.578125 -4.945312 11.519531 -8.734375 5.4375 -13.390625 L 16.109375 -37.078125 C 21.929688 -32.804688 28.851562 -29.375 36.875 -26.78125 C 44.90625 -24.195312 52.929688 -22.90625 60.953125 -22.90625 C 69.890625 -22.90625 76.492188 -24.234375 80.765625 -26.890625 C 85.035156 -29.546875 87.171875 -33.070312 87.171875 -37.46875 C 87.171875 -40.707031 85.90625 -43.394531 83.375 -45.53125 C 80.851562 -47.664062 77.617188 -49.378906 73.671875 -50.671875 C 69.722656 -51.960938 64.382812 -53.382812 57.65625 -54.9375 C 47.300781 -57.394531 38.820312 -59.851562 32.21875 -62.3125 C 25.625 -64.78125 19.960938 -68.726562 15.234375 -74.15625 C 10.515625 -79.59375 8.15625 -86.84375 8.15625 -95.90625 C 8.15625 -103.800781 10.289062 -110.953125 14.5625 -117.359375 C 18.832031 -123.765625 25.269531 -128.84375 33.875 -132.59375 C 42.476562 -136.351562 52.992188 -138.234375 65.421875 -138.234375 C 74.097656 -138.234375 82.578125 -137.195312 90.859375 -135.125 C 99.140625 -133.050781 106.390625 -130.070312 112.609375 -126.1875 L 102.890625 -102.3125 C 90.335938 -109.425781 77.785156 -112.984375 65.234375 -112.984375 C 56.429688 -112.984375 49.925781 -111.5625 45.71875 -108.71875 C 41.507812 -105.875 39.40625 -102.117188 39.40625 -97.453125 C 39.40625 -92.796875 41.832031 -89.332031 46.6875 -87.0625 C 51.539062 -84.800781 58.953125 -82.570312 68.921875 -80.375 C 79.273438 -77.914062 87.75 -75.457031 94.34375 -73 C 100.945312 -70.539062 106.609375 -66.65625 111.328125 -61.34375 C 116.054688 -56.039062 118.421875 -48.859375 118.421875 -39.796875 C 118.421875 -32.035156 116.253906 -24.953125 111.921875 -18.546875 C 107.585938 -12.140625 101.082031 -7.054688 92.40625 -3.296875 C 83.738281 0.449219 73.191406 2.328125 60.765625 2.328125 Z M 60.765625 2.328125 "/></g></g></g><g fill="#0fa685" fill-opacity="1"><g transform="translate(439.813522, 187.467763)"><g><path d="M 81.34375 -5.046875 C 78.363281 -2.847656 74.707031 -1.195312 70.375 -0.09375 C 66.039062 0.996094 61.476562 1.546875 56.6875 1.546875 C 44.257812 1.546875 34.648438 -1.617188 27.859375 -7.953125 C 21.066406 -14.296875 17.671875 -23.617188 17.671875 -35.921875 L 17.671875 -78.828125 L 1.546875 -78.828125 L 1.546875 -102.125 L 17.671875 -102.125 L 17.671875 -127.546875 L 47.953125 -127.546875 L 47.953125 -102.125 L 73.96875 -102.125 L 73.96875 -78.828125 L 47.953125 -78.828125 L 47.953125 -36.296875 C 47.953125 -31.898438 49.082031 -28.503906 51.34375 -26.109375 C 53.613281 -23.710938 56.816406 -22.515625 60.953125 -22.515625 C 65.742188 -22.515625 69.820312 -23.8125 73.1875 -26.40625 Z M 81.34375 -5.046875 "/></g></g></g><g fill="#0fa685" fill-opacity="1"><g transform="translate(524.266162, 187.467763)"><g><path d="M 119.203125 -104.453125 L 119.203125 0 L 90.46875 0 L 90.46875 -12.421875 C 86.457031 -7.890625 81.664062 -4.425781 76.09375 -2.03125 C 70.53125 0.351562 64.515625 1.546875 58.046875 1.546875 C 44.328125 1.546875 33.453125 -2.394531 25.421875 -10.28125 C 17.398438 -18.175781 13.390625 -29.890625 13.390625 -45.421875 L 13.390625 -104.453125 L 43.6875 -104.453125 L 43.6875 -49.890625 C 43.6875 -33.066406 50.738281 -24.65625 64.84375 -24.65625 C 72.09375 -24.65625 77.914062 -27.015625 82.3125 -31.734375 C 86.71875 -36.460938 88.921875 -43.488281 88.921875 -52.8125 L 88.921875 -104.453125 Z M 119.203125 -104.453125 "/></g></g></g><g fill="#0fa685" fill-opacity="1"><g transform="translate(657.643077, 187.467763)"><g><path d="M 120.375 -144.046875 L 120.375 0 L 91.4375 0 L 91.4375 -12.03125 C 83.9375 -2.976562 73.066406 1.546875 58.828125 1.546875 C 48.984375 1.546875 40.082031 -0.648438 32.125 -5.046875 C 24.164062 -9.453125 17.921875 -15.726562 13.390625 -23.875 C 8.859375 -32.03125 6.59375 -41.476562 6.59375 -52.21875 C 6.59375 -62.96875 8.859375 -72.414062 13.390625 -80.5625 C 17.921875 -88.71875 24.164062 -94.992188 32.125 -99.390625 C 40.082031 -103.796875 48.984375 -106 58.828125 -106 C 72.160156 -106 82.578125 -101.789062 90.078125 -93.375 L 90.078125 -144.046875 Z M 64.0625 -23.296875 C 71.695312 -23.296875 78.035156 -25.914062 83.078125 -31.15625 C 88.128906 -36.394531 90.65625 -43.414062 90.65625 -52.21875 C 90.65625 -61.019531 88.128906 -68.039062 83.078125 -73.28125 C 78.035156 -78.53125 71.695312 -81.15625 64.0625 -81.15625 C 56.300781 -81.15625 49.894531 -78.53125 44.84375 -73.28125 C 39.800781 -68.039062 37.28125 -61.019531 37.28125 -52.21875 C 37.28125 -43.414062 39.800781 -36.394531 44.84375 -31.15625 C 49.894531 -25.914062 56.300781 -23.296875 64.0625 -23.296875 Z M 64.0625 -23.296875 "/></g></g></g><g fill="#0fa685" fill-opacity="1"><g transform="translate(791.99066, 187.467763)"><g><path d="M 116.296875 -51.828125 C 116.296875 -51.441406 116.097656 -48.726562 115.703125 -43.6875 L 36.6875 -43.6875 C 38.113281 -37.207031 41.476562 -32.09375 46.78125 -28.34375 C 52.09375 -24.59375 58.695312 -22.71875 66.59375 -22.71875 C 72.03125 -22.71875 76.847656 -23.523438 81.046875 -25.140625 C 85.253906 -26.753906 89.171875 -29.3125 92.796875 -32.8125 L 108.90625 -15.34375 C 99.070312 -4.082031 84.707031 1.546875 65.8125 1.546875 C 54.03125 1.546875 43.609375 -0.75 34.546875 -5.34375 C 25.492188 -9.9375 18.507812 -16.304688 13.59375 -24.453125 C 8.675781 -32.609375 6.21875 -41.863281 6.21875 -52.21875 C 6.21875 -62.445312 8.640625 -71.671875 13.484375 -79.890625 C 18.335938 -88.109375 25.003906 -94.515625 33.484375 -99.109375 C 41.960938 -103.703125 51.445312 -106 61.9375 -106 C 72.15625 -106 81.40625 -103.796875 89.6875 -99.390625 C 97.976562 -94.992188 104.484375 -88.6875 109.203125 -80.46875 C 113.929688 -72.25 116.296875 -62.703125 116.296875 -51.828125 Z M 62.125 -83.09375 C 55.257812 -83.09375 49.5 -81.148438 44.84375 -77.265625 C 40.1875 -73.378906 37.335938 -68.070312 36.296875 -61.34375 L 87.75 -61.34375 C 86.71875 -67.945312 83.867188 -73.222656 79.203125 -77.171875 C 74.546875 -81.117188 68.851562 -83.09375 62.125 -83.09375 Z M 62.125 -83.09375 "/></g></g></g><g fill="#0fa685" fill-opacity="1"><g transform="translate(914.495469, 187.467763)"><g><path d="M 77.46875 -106 C 90.40625 -106 100.851562 -102.113281 108.8125 -94.34375 C 116.769531 -86.582031 120.75 -75.066406 120.75 -59.796875 L 120.75 0 L 90.46875 0 L 90.46875 -55.140625 C 90.46875 -63.421875 88.65625 -69.597656 85.03125 -73.671875 C 81.40625 -77.753906 76.164062 -79.796875 69.3125 -79.796875 C 61.675781 -79.796875 55.59375 -77.429688 51.0625 -72.703125 C 46.53125 -67.984375 44.265625 -60.960938 44.265625 -51.640625 L 44.265625 0 L 13.984375 0 L 13.984375 -104.453125 L 42.90625 -104.453125 L 42.90625 -92.21875 C 46.914062 -96.613281 51.894531 -100.007812 57.84375 -102.40625 C 63.800781 -104.800781 70.34375 -106 77.46875 -106 Z M 77.46875 -106 "/></g></g></g><g fill="#0fa685" fill-opacity="1"><g transform="translate(1048.648998, 187.467763)"><g><path d="M 81.34375 -5.046875 C 78.363281 -2.847656 74.707031 -1.195312 70.375 -0.09375 C 66.039062 0.996094 61.476562 1.546875 56.6875 1.546875 C 44.257812 1.546875 34.648438 -1.617188 27.859375 -7.953125 C 21.066406 -14.296875 17.671875 -23.617188 17.671875 -35.921875 L 17.671875 -78.828125 L 1.546875 -78.828125 L 1.546875 -102.125 L 17.671875 -102.125 L 17.671875 -127.546875 L 47.953125 -127.546875 L 47.953125 -102.125 L 73.96875 -102.125 L 73.96875 -78.828125 L 47.953125 -78.828125 L 47.953125 -36.296875 C 47.953125 -31.898438 49.082031 -28.503906 51.34375 -26.109375 C 53.613281 -23.710938 56.816406 -22.515625 60.953125 -22.515625 C 65.742188 -22.515625 69.820312 -23.8125 73.1875 -26.40625 Z M 81.34375 -5.046875 "/></g></g></g></g></g></g></g></g></svg>